<svg width="141" height="122" viewBox="0 0 141 122" fill="none" xmlns="http://www.w3.org/2000/svg">
<path d="M19.106 122H121.63C133.486 122 140.736 114.074 140.736 103.696C140.736 100.672 139.798 97.4856 138.092 94.6255L86.7446 9.23362C83.077 3.18687 76.8504 0 70.368 0C63.8857 0 57.5739 3.18687 53.9915 9.23362L2.64413 94.6255C0.852944 97.5673 0 100.672 0 103.696C0 114.074 7.25006 122 19.106 122ZM19.1912 110.478C15.0118 110.478 12.2825 107.21 12.2825 103.696C12.2825 102.634 12.5382 101.326 13.1353 100.264L64.3974 14.7902C65.6769 12.6657 68.065 11.6033 70.368 11.6033C72.5857 11.6033 74.8887 12.6657 76.2533 14.7902L127.515 100.346C128.112 101.408 128.368 102.634 128.368 103.696C128.368 107.21 125.639 110.478 121.46 110.478H19.1912Z" fill="#FF6E40"/>
<path d="M70.3684 78.4472C73.9508 78.4472 75.9979 76.5676 76.0832 72.8088L77.1921 39.3058C77.2773 35.7102 74.2067 32.932 70.2832 32.932C66.189 32.932 63.3743 35.6285 63.4595 39.2241L64.3977 72.8088C64.4832 76.486 66.5301 78.4472 70.3684 78.4472ZM70.3684 99.8563C74.5479 99.8563 78.1303 96.7513 78.1303 92.6655C78.1303 88.5797 74.6331 85.4746 70.3684 85.4746C66.1037 85.4746 62.5213 88.6615 62.5213 92.6655C62.5213 96.6694 66.189 99.8563 70.3684 99.8563Z" fill="#FF6E40"/>
</svg>
